<?xml version="1.0" encoding="UTF-8"?><svg id="uuid-69caa038-0388-44ba-9430-bbc9acd6e835" xmlns="http://www.w3.org/2000/svg" xmlns:xlink="http://www.w3.org/1999/xlink" viewBox="0 0 28.32 28.32"><defs><symbol id="uuid-bdbf8a5e-4ea6-468e-bbf1-62dc2891e327" viewBox="0 0 11.34 11.34"><path d="m11.34,5.67c0,3.13-2.54,5.67-5.67,5.67S0,8.8,0,5.67,2.54,0,5.67,0s5.67,2.54,5.67,5.67" style="fill:#fd0; stroke-width:0px;"/><path d="m8.47,6.74l-.83-4.51c-.02-.13-.14-.23-.27-.23h-.92v.43h.79l.57,3.09-.77,1.4h-3.57c-.19-.14-.43-.22-.69-.18-.4.06-.72.39-.77.79-.06.55.37,1.02.9,1.02.27,0,.52-.12.69-.31h3.01c.12,0,.23-.07.29-.17l1.03-1.88.12.63c-.35.16-.59.54-.53.96.06.4.39.73.8.77.55.06,1.01-.37,1.01-.9,0-.48-.38-.88-.86-.91m-5.44,1.38c-.35.08-.66-.23-.58-.58.04-.18.18-.32.36-.36.35-.08.66.23.58.58-.04.18-.18.32-.36.36m.78-.3c.01-.05.02-.11.02-.17,0-.1-.02-.2-.05-.29h3.03l-.25.46h-2.74Zm4.72.3c-.35.08-.66-.23-.58-.58.04-.18.18-.32.36-.36.35-.08.66.23.58.58-.04.18-.18.32-.36.36" style="fill:#1d1d1b; stroke-width:0px;"/></symbol></defs><g id="uuid-e6e775e7-4601-4caf-8a06-2257f46a4c4f"><use width="11.34" height="11.34" transform="scale(2.5)" xlink:href="#uuid-bdbf8a5e-4ea6-468e-bbf1-62dc2891e327"/></g></svg>