<?xml version="1.0" encoding="UTF-8"?><svg id="uuid-f0678507-1d36-470c-8ef6-de89d41edf49" xmlns="http://www.w3.org/2000/svg" xmlns:xlink="http://www.w3.org/1999/xlink" viewBox="0 0 28.32 28.32"><defs><symbol id="uuid-b823b574-aab5-4a59-ab78-043a5b6cfb60" viewBox="0 0 11.34 11.34"><path d="m5.67,11.34h0c-3.13,0-5.67-2.54-5.67-5.67S2.54,0,5.67,0s5.67,2.54,5.67,5.67-2.54,5.67-5.67,5.67" style="fill:#fd0; stroke-width:0px;"/><path d="m8.07,4.16c-.28,0-.55.07-.79.18l-.29-.5s-.01-.01-.02-.02l-.47-.86c-.04-.07-.11-.11-.19-.11h-.79v.44h.66l.24.44h-2.13l-.08-.23h.24v-.44h-1.02v.44h.32l.13.36s0,0,0,0l-.16.36c-.16-.04-.32-.07-.49-.07-1.01,0-1.83.82-1.83,1.82s.82,1.83,1.83,1.83c.94,0,1.72-.72,1.82-1.64h.38c.07,0,.14-.04.18-.1l1.17-1.74.14.24c-.41.33-.67.84-.67,1.41,0,1.01.82,1.83,1.83,1.83s1.83-.82,1.83-1.83-.82-1.82-1.83-1.82m-4.85,3.21c-.76,0-1.39-.62-1.39-1.39s.62-1.39,1.39-1.39c.11,0,.21.01.31.04l-.54,1.23c-.03.07-.02.15.02.21.04.06.11.1.18.1h1.39c-.09.67-.67,1.2-1.37,1.2m.72-2.57c.33.2.57.54.64.93h-1.05l.41-.93Zm1.36.93h-.27c-.08-.57-.43-1.06-.91-1.34l.1-.22h2.13l-1.05,1.56Zm2.77,1.64c-.76,0-1.39-.62-1.39-1.39,0-.4.18-.77.45-1.02l.71,1.21.38-.22-.72-1.23c.17-.08.36-.12.56-.12.76,0,1.39.62,1.39,1.39s-.62,1.39-1.39,1.39" style="fill:#1d1d1b; stroke-width:0px;"/></symbol></defs><g id="uuid-29a96fec-9ce5-44ad-8772-95ff32dba17e"><use width="11.34" height="11.34" transform="scale(2.5)" xlink:href="#uuid-b823b574-aab5-4a59-ab78-043a5b6cfb60"/></g></svg>