<?xml version="1.0" encoding="UTF-8"?><svg id="uuid-b204d8e6-48b2-4be8-9b10-ee3e61f23472" xmlns="http://www.w3.org/2000/svg" xmlns:xlink="http://www.w3.org/1999/xlink" viewBox="0 0 28.32 28.32"><defs><symbol id="uuid-d74974ce-bef9-4c11-bae0-f4911edf102c" viewBox="0 0 11.34 11.34"><path d="m5.67,11.34h0c-3.13,0-5.67-2.54-5.67-5.67S2.54,0,5.67,0s5.67,2.54,5.67,5.67-2.54,5.67-5.67,5.67" style="fill:#fd0; stroke-width:0px;"/><path d="m7.68,7.16c.17.1.36.19.64.19.36,0,.59-.15.78-.29.16-.12.32-.2.52-.2v-.44c-.35,0-.59.15-.78.29-.18.13-.31.2-.52.2-.17,0-.29-.05-.43-.14.11-.27.17-.56.17-.87h0v-.22c.01-.3.02-.57.02-.9v-.18l-.56-.12v-1.37c0-.36-.29-.65-.65-.65h-.7v-.38h-.89v.38h-.7c-.36,0-.65.29-.65.65v1.37l-.56.12v.18c0,.41.02,1.12.02,1.12,0,.31.06.6.17.87-.14.09-.26.14-.43.14-.21,0-.33-.06-.52-.2-.21-.15-.45-.29-.78-.29v.44c.22,0,.38.1.52.2.21.15.43.29.78.29.26,0,.47-.09.63-.19.1.15.21.29.34.41-.18.05-.32.15-.45.24-.17.13-.32.2-.52.2s-.33-.06-.52-.2c-.21-.15-.45-.29-.78-.29v.44c.2,0,.34.07.52.2.21.15.43.29.78.29s.59-.15.78-.29c.18-.14.32-.2.52-.2.22,0,.38.1.52.2.18.14.43.29.79.29s.59-.15.78-.29c.17-.12.32-.2.52-.2s.35.08.52.2c.2.15.42.29.78.29s.59-.15.78-.29c.16-.12.32-.2.52-.2v-.44c-.35,0-.59.15-.78.29-.18.13-.31.2-.52.2s-.34-.07-.52-.2c-.13-.09-.27-.18-.45-.24.13-.12.24-.26.34-.41m-3.34-4.05c0-.12.1-.21.21-.21h2.29c.12,0,.21.1.21.21v1.27l-1.37-.29-1.36.29v-1.27Zm-.55,2.78s-.01-.52-.01-.93l1.92-.41,1.93.41c0,.25,0,.47-.01.71v.25s0,0,0,0c0,1.05-.86,1.89-1.91,1.89s-1.91-.86-1.91-1.91" style="fill:#1d1d1b; stroke-width:0px;"/></symbol></defs><g id="uuid-decc60b7-83b1-4d44-ad42-3f114bdf1d15"><use width="11.34" height="11.34" transform="scale(2.5)" xlink:href="#uuid-d74974ce-bef9-4c11-bae0-f4911edf102c"/></g></svg>