<?xml version="1.0" encoding="UTF-8"?><svg id="uuid-2dc0daa1-9c42-4959-88d2-b943ccc725db" xmlns="http://www.w3.org/2000/svg" xmlns:xlink="http://www.w3.org/1999/xlink" viewBox="0 0 28.32 28.32"><defs><symbol id="uuid-cc74b44d-66f6-46d7-9e5e-056cc295ed61" viewBox="0 0 11.34 11.34"><path d="m5.67,11.34h0c-3.13,0-5.67-2.54-5.67-5.67S2.54,0,5.67,0s5.67,2.54,5.67,5.67-2.54,5.67-5.67,5.67" style="fill:#fd0; stroke-width:0px;"/><path d="m8.05,2.27H3.29c-.28,0-.5.23-.5.5v1.12h-.3v.69h.3v3.25c0,.28.23.5.5.5h.22v.67h.44v-.67h3.44v.67h.44v-.67h.22c.28,0,.5-.22.5-.5V2.77c0-.28-.23-.5-.5-.5m-4.75.44h1.93v.68h.89v-.68h1.93s.06.03.06.06v3.69H3.23v-3.69s.03-.06.06-.06m4.75,5.18H3.29s-.06-.03-.06-.06v-.92h4.88v.92s-.03.06-.06.06" style="fill:#1d1d1b; stroke-width:0px;"/><rect x="8.19" y="3.89" width=".66" height=".69" style="fill:#1d1d1b; stroke-width:0px;"/></symbol></defs><g id="uuid-99d403f5-fb04-46cf-8ba0-39826987d80f"><use width="11.34" height="11.34" transform="scale(2.5)" xlink:href="#uuid-cc74b44d-66f6-46d7-9e5e-056cc295ed61"/></g></svg>