<?xml version="1.0" encoding="UTF-8"?><svg id="uuid-d677022b-8850-4269-a0cc-725da7d0afc5" xmlns="http://www.w3.org/2000/svg" xmlns:xlink="http://www.w3.org/1999/xlink" viewBox="0 0 28.32 28.32"><defs><symbol id="uuid-c4534bb2-8b36-4b75-a50e-69c4c7b29f58" viewBox="0 0 11.34 11.34"><path d="m5.67,11.34h0c-3.13,0-5.67-2.54-5.67-5.67S2.54,0,5.67,0s5.67,2.54,5.67,5.67-2.54,5.67-5.67,5.67" style="fill:#fd0; stroke-width:0px;"/><path d="m7.84,3.5s0,0,0,0c0,0,0,0,0,0Z" style="fill:#1d1d1b; stroke-width:0px;"/><path d="m3.5,7.84s0,0,0,0h0Z" style="fill:#1d1d1b; stroke-width:0px;"/><path d="m5.67,1.7c-2.19,0-3.97,1.78-3.97,3.97s1.78,3.97,3.97,3.97,3.97-1.78,3.97-3.97-1.78-3.97-3.97-3.97Zm0,7.03c-.85,0-1.61-.34-2.17-.9.08.08.12.18.12.3,0,.23-.19.42-.42.42s-.42-.19-.42-.42.19-.42.42-.42c.12,0,.22.05.3.12-.55-.55-.9-1.32-.9-2.17,0-1.69,1.37-3.06,3.07-3.06.85,0,1.61.34,2.17.9-.08-.08-.12-.18-.12-.3,0-.23.19-.42.42-.42s.42.19.42.42-.19.42-.42.42c-.12,0-.22-.05-.3-.12.55.55.9,1.32.9,2.17,0,1.69-1.37,3.07-3.07,3.07Z" style="fill:#1d1d1b; stroke-width:0px;"/></symbol></defs><g id="uuid-a75fc3cc-ff5a-461a-a1e3-6b96d53a1bb1"><use width="11.34" height="11.34" transform="scale(2.5)" xlink:href="#uuid-c4534bb2-8b36-4b75-a50e-69c4c7b29f58"/></g></svg>