<?xml version="1.0" encoding="UTF-8"?><svg id="uuid-5381c97e-2794-42cd-ab81-9fda5b6b4d23" xmlns="http://www.w3.org/2000/svg" xmlns:xlink="http://www.w3.org/1999/xlink" viewBox="0 0 28.32 28.32"><defs><symbol id="uuid-117500c1-ccad-4875-a876-d8f85f6d7d2e" viewBox="0 0 11.34 11.34"><path d="m5.67,11.34h0c-3.13,0-5.67-2.54-5.67-5.67S2.54,0,5.67,0s5.67,2.54,5.67,5.67-2.54,5.67-5.67,5.67" style="fill:#fd0; stroke-width:0px;"/><path d="m9,8.02v-.57c0-.12-.1-.22-.22-.22h-.55v-2.68h.15c.12,0,.22-.1.22-.22v-1.05c0-.09-.05-.17-.13-.2l-2.72-1.18c-.06-.02-.12-.02-.17,0l-2.72,1.18c-.08.03-.13.11-.13.2v1.05c0,.12.1.22.22.22h.14v2.68h-.47c-.12,0-.22.1-.22.22v.57h-.4v.44h7.33v-.44h-.32Zm-1.2-.79h-.74v-2.68h.74v2.68ZM3.17,3.52h5v.6H3.17v-.6Zm2.27,3.72h-.74v-2.68h.74v2.68Zm.44-2.68h.74v2.68h-.74v-2.68Zm-.21-2.21l1.68.73h-3.37l1.69-.73Zm-2.14,2.21h.74v2.68h-.74v-2.68Zm-.69,3.12h5.72v.35H2.84v-.35Z" style="fill:#1d1d1b; stroke-width:0px;"/></symbol></defs><g id="uuid-0fbd229d-794e-4bde-923b-e2f562901784"><use width="11.34" height="11.34" transform="scale(2.5)" xlink:href="#uuid-117500c1-ccad-4875-a876-d8f85f6d7d2e"/></g></svg>