<?xml version="1.0" encoding="UTF-8"?><svg id="uuid-7938fcf2-13da-4287-b757-ff65b1b65e36" xmlns="http://www.w3.org/2000/svg" xmlns:xlink="http://www.w3.org/1999/xlink" viewBox="0 0 28.32 28.32"><defs><symbol id="uuid-f4f61074-e312-4586-b628-155aab86301f" viewBox="0 0 11.34 11.34"><path d="m5.67,11.34h0c-3.13,0-5.67-2.54-5.67-5.67S2.54,0,5.67,0s5.67,2.54,5.67,5.67-2.54,5.67-5.67,5.67" style="fill:#fd0; stroke-width:0px;"/><path d="m9.01,8.37v-3.91c0-.12-.1-.22-.22-.22h-1.19v-.64c0-.09-.05-.17-.13-.2l-1.57-.68v-.2l1.24-.18c.11-.02.19-.11.19-.22v-.63c0-.12-.1-.22-.22-.22h-1.43c-.12,0-.22.1-.22.22v1.22l-1.57.68c-.08.03-.13.11-.13.2v.64h-1.2c-.12,0-.22.1-.22.22v3.91h-.33v.44h7.33v-.44h-.32ZM5.89,1.72h.99v.22l-.99.14v-.36Zm-.22,1.39l1.49.64v4.62h-.59v-1.5c0-.12-.1-.22-.22-.22h-1.21c-.12,0-.22.1-.22.22v1.5h-.74V3.75l1.49-.64Zm-.31,3.98h.77v1.24h-.77v-1.24Zm-2.59-2.4h.98v3.69h-.98v-3.69Zm4.83,0h.97v3.69h-.97v-3.69Z" style="fill:#1d1d1b; stroke-width:0px;"/><rect x="3.02" y="5.07" width=".44" height="1.15" style="fill:#1d1d1b; stroke-width:0px;"/><rect x="4.85" y="4.17" width=".44" height="1.15" style="fill:#1d1d1b; stroke-width:0px;"/><rect x="6.05" y="4.17" width=".44" height="1.15" style="fill:#1d1d1b; stroke-width:0px;"/><rect x="7.85" y="5.07" width=".44" height="1.15" style="fill:#1d1d1b; stroke-width:0px;"/></symbol></defs><g id="uuid-d94941de-81ee-494d-8520-a57c1c6353e0"><use width="11.34" height="11.34" transform="scale(2.5)" xlink:href="#uuid-f4f61074-e312-4586-b628-155aab86301f"/></g></svg>