<?xml version="1.0" encoding="UTF-8"?><svg id="uuid-6105b2fa-1ac2-46dc-aed1-4bbb4fad6f79" xmlns="http://www.w3.org/2000/svg" xmlns:xlink="http://www.w3.org/1999/xlink" viewBox="0 0 28.32 28.32"><defs><symbol id="uuid-5a6e474a-67c4-48f9-8030-0d9b4e8dfb81" viewBox="0 0 11.34 11.34"><path d="m5.67,11.34h0c-3.13,0-5.67-2.54-5.67-5.67S2.54,0,5.67,0s5.67,2.54,5.67,5.67-2.54,5.67-5.67,5.67" style="fill:#fd0; stroke-width:0px;"/><path d="m8.78,4.17c-.04-.05-.1-.08-.17-.08H3.62l-.22-1.12c-.02-.1-.11-.18-.22-.18h-.99v.44h.81l.78,3.93c.02.1.11.18.22.18h4.04c.1,0,.19-.07.22-.18l.57-2.8c.01-.06,0-.13-.04-.18m-.63,1.28h-1.18l.08-.92h1.29l-.19.92Zm-2.73,0l-.08-.92h1.26l-.08.92h-1.11Zm1.07.44l-.08,1h-.87l-.08-1h1.03Zm-1.59-1.36l.08.92h-1.09l-.18-.92h1.2Zm-.93,1.36h1.04l.08,1h-.92l-.2-1Zm3.88,1h-1.01l.08-1h1.13l-.21,1Z" style="fill:#1d1d1b; stroke-width:0px;"/><path d="m4.21,7.48c-.45,0-.81.36-.81.81s.36.81.81.81.81-.36.81-.81-.36-.81-.81-.81m0,1.18c-.21,0-.37-.17-.37-.37s.17-.37.37-.37.37.17.37.37-.17.37-.37.37" style="fill:#1d1d1b; stroke-width:0px;"/><path d="m7.4,7.48c-.45,0-.81.36-.81.81s.36.81.81.81.81-.36.81-.81-.36-.81-.81-.81m0,1.18c-.21,0-.37-.17-.37-.37s.17-.37.37-.37.37.17.37.37-.17.37-.37.37" style="fill:#1d1d1b; stroke-width:0px;"/></symbol></defs><g id="uuid-0b62fa9e-0400-45d0-9833-87f6f7772bd2"><use width="11.34" height="11.34" transform="scale(2.5)" xlink:href="#uuid-5a6e474a-67c4-48f9-8030-0d9b4e8dfb81"/></g></svg>