<?xml version="1.0" encoding="UTF-8"?><svg id="uuid-7a31240b-8729-48db-9b50-c484ad528f8d" xmlns="http://www.w3.org/2000/svg" xmlns:xlink="http://www.w3.org/1999/xlink" viewBox="0 0 28.32 28.32"><defs><symbol id="uuid-5d86e475-a65e-4520-8025-87540b17c78f" viewBox="0 0 11.34 11.34"><path d="m5.67,11.34h0c-3.13,0-5.67-2.54-5.67-5.67S2.54,0,5.67,0s5.67,2.54,5.67,5.67-2.54,5.67-5.67,5.67" style="fill:#fd0; stroke-width:0px;"/><polygon points="6.84 4.37 5.73 7.08 5.72 7.08 5.7 7.08 5.69 7.08 4.58 4.37 3.6 4.37 3.6 8.28 4.31 8.28 4.31 5.66 4.35 5.66 5.39 8.26 5.7 8.26 5.72 8.26 6.03 8.26 7.07 5.66 7.12 5.66 7.12 8.28 7.83 8.28 7.83 4.37 6.84 4.37" style="fill:#1d1d1b; stroke-width:0px;"/><path d="m9.25,8.28h-.44v-3.05c0-1.71-1.39-3.09-3.09-3.09s-3.09,1.39-3.09,3.09v3.05h-.44v-3.05c0-1.95,1.59-3.53,3.53-3.53s3.53,1.59,3.53,3.53v3.05Z" style="fill:#1d1d1b; stroke-width:0px;"/></symbol></defs><g id="uuid-d21eb596-97e8-46c1-a900-ddeda6bd2ac3"><use width="11.34" height="11.34" transform="scale(2.5)" xlink:href="#uuid-5d86e475-a65e-4520-8025-87540b17c78f"/></g></svg>