<?xml version="1.0" encoding="UTF-8"?><svg id="uuid-e831d779-6d2d-4b42-8941-ec9b84d6a9e3" xmlns="http://www.w3.org/2000/svg" xmlns:xlink="http://www.w3.org/1999/xlink" viewBox="0 0 28.32 28.32"><defs><symbol id="uuid-6138e2ca-381b-43a9-9e22-e3df9d6e9523" viewBox="0 0 11.34 11.34"><path d="m5.67,11.34h0c-3.13,0-5.67-2.54-5.67-5.67S2.54,0,5.67,0s5.67,2.54,5.67,5.67-2.54,5.67-5.67,5.67" style="fill:#fd0; stroke-width:0px;"/><path d="m8.05,2.16H3.29c-.28,0-.5.23-.5.5v4.24c0,.28.23.5.5.5h.63l-.8,1.56h.5l.8-1.56h2.46l.8,1.56h.5l-.8-1.56h.67c.28,0,.5-.23.5-.5V2.66c0-.28-.23-.5-.5-.5m-4.75.44h1.93v.68h.89v-.68h1.93s.06.03.06.06v2.39H3.23v-2.39s.03-.06.06-.06m4.75,4.36H3.29s-.06-.03-.06-.06v-1.42h4.88v1.42s-.03.06-.06.06" style="fill:#1d1d1b; stroke-width:0px;"/><path d="m4.33,5.94c-.14,0-.26.12-.26.26s.12.26.26.26.26-.12.26-.26-.12-.26-.26-.26" style="fill:#1d1d1b; stroke-width:0px;"/><path d="m7.01,5.94c-.14,0-.26.12-.26.26s.12.26.26.26.26-.12.26-.26-.12-.26-.26-.26" style="fill:#1d1d1b; stroke-width:0px;"/></symbol></defs><g id="uuid-79367143-3269-48ca-92ab-d8908aea81de"><use width="11.34" height="11.34" transform="scale(2.5)" xlink:href="#uuid-6138e2ca-381b-43a9-9e22-e3df9d6e9523"/></g></svg>