<?xml version="1.0" encoding="UTF-8"?><svg id="uuid-22eac43a-1190-4897-988b-c76b317c70b6" xmlns="http://www.w3.org/2000/svg" xmlns:xlink="http://www.w3.org/1999/xlink" viewBox="0 0 28.32 28.32"><defs><symbol id="uuid-17ac4ecf-9448-4082-99f8-7cfb5f5b3c1c" viewBox="0 0 11.34 11.34"><path d="m6.01,11.33h0C2.88,11.52.2,9.13.01,6.01-.18,2.88,2.21.2,5.33.01c3.13-.19,5.81,2.19,6,5.32.19,3.13-2.2,5.81-5.32,6" style="fill:#2869af; stroke-width:0px;"/><path d="m8.41,7.97l-.77-1.95c-.04-.1-.14-.16-.24-.16h-1.84v-1h1.25v-.52h-1.25v-1.01c.28-.11.48-.37.48-.69,0-.41-.33-.74-.74-.74s-.74.33-.74.74c0,.32.2.59.48.69v2.79c0,.14.12.26.26.26h1.92l.77,1.95c.04.1.14.16.24.16h.76v-.52h-.58Z" style="fill:#fff; stroke-width:0px;"/><path d="m6.99,7.77c-.38.44-.94.69-1.53.69-1.12,0-2.03-.91-2.03-2.03,0-.72.39-1.4,1.02-1.76.03-.02.07-.02.1-.04v-.56c-.12.05-.25.08-.36.15-.79.45-1.28,1.3-1.28,2.21,0,1.4,1.14,2.55,2.55,2.55.73,0,1.43-.32,1.92-.87,0,0,0,0,0,0l-.22-.57c-.05.08-.11.16-.17.24" style="fill:#fff; stroke-width:0px;"/></symbol></defs><g id="uuid-3d165195-8fa0-4208-82bc-716aa74a9a82"><use width="11.34" height="11.34" transform="scale(2.5)" xlink:href="#uuid-17ac4ecf-9448-4082-99f8-7cfb5f5b3c1c"/></g></svg>